# xmcd
#
# Track frame offsets:
#	150
#	25212
#	41400
#	57880
#	75205
#	98326
#	115784
#	128419
#	140231
#	163473
#	174513
#	186547
#
# Disc length: 2679 seconds
#
# Revision: 1
# Processed by: cddbd v1.5.2PL0 Copyright (c) Steve Scherf et al.
# Submitted via: audiograbber 1.83.01
#
DISCID=970a750c
DTITLE=Various Artist - HMG Christmas 1998
DYEAR=1900
DGENRE=
TTITLE0=The Imperials - I Have Seen The Light
TTITLE1=Amy Choate - Mary Had A Little Lamb
TTITLE2=Tammy Beaumont - Joy To The World
TTITLE3=Jay Fox - The Spirit Of Christmas
TTITLE4=Beverly Wi8lkey Louallen - Starry Night
TTITLE5=The Fox Brothers - The Greatest Gift
TTITLE6=Amber Morgan - Mama Leave The Light On For Santa
TTITLE7=Amber Morgan - Christmas Party
TTITLE8=Zeb Son and Family - Shepherd
TTITLE9=Dr. Jim Matthews and Family - Homecoming
TTITLE10=Naomi Hills - Colorado Christian Memories
TTITLE11=Gene Higgins - We'll Welcome The King
EXTD=
EXTT0=
EXTT1=
EXTT2=
EXTT3=
EXTT4=
EXTT5=
EXTT6=
EXTT7=
EXTT8=
EXTT9=
EXTT10=
EXTT11=
PLAYORDER=
